# xmcd CD database file
#
# Track frame offsets:
#	150
#	11207
#	22822
#	36634
#	51739
#	65862
#	77737
#	88705
#	100589
#	116041
#
# Disc length: 1723 seconds
#
# Revision: 0
# Processed by: cddbd v1.5.2PL0 Copyright (c) Steve Scherf et al.
# Submitted via: CDex 1.51
#
DISCID=8906b90a
DTITLE=Twitty, Conway - Greatest Hits
DYEAR=1981
DGENRE=Country
TTITLE0=Hello Darlin'
TTITLE1=To See My Angel Cry
TTITLE2=Fifteen Years Ago
TTITLE3=(Lost Her Love) On Our Last Date
TTITLE4=You've Never Been This Far Before
TTITLE5=She Needs Someone To Hold Her (When She Cries)
TTITLE6=As Soon As I Hang Up The Phone
TTITLE7=(Lying Here With) Linda On My Mind
TTITLE8=Touch The Hand
TTITLE9=After All The Good Is Gone
EXTD=YEAR: 1981
EXTT0=
EXTT1=
EXTT2=
EXTT3=
EXTT4=
EXTT5=
EXTT6=
EXTT7=
EXTT8=
EXTT9=
PLAYORDER=
